<svg width="26" height="14" viewBox="0 0 26 14" fill="none" xmlns="http://www.w3.org/2000/svg">
<rect x="2" y="2.3291" width="22" height="9.67113" fill="white"/>
<path d="M24.1143 1C24.4542 1 24.7228 1.25 24.71 1.67568V11.8954C24.71 12.2333 24.4542 12.5702 24.0294 12.5702H1.67983C1.33992 12.5702 1 12.3177 1 11.8954V2.85729C1 2.52029 1.25494 2.18245 1.67983 2.18245H15.7014V1.67568C15.7014 1.33784 15.9563 1 16.3812 1H24.1143ZM3.63453 3.61816H2.9547C2.69976 3.61816 2.44483 3.87155 2.44483 4.12408V10.7973C2.44483 11.0507 2.69976 11.3032 2.9547 11.3032H7.0337C7.28863 11.3032 7.54357 11.0507 7.54357 10.7973V10.1216C7.54357 9.8674 7.28863 9.61402 7.0337 9.61402H4.14441V4.12408C4.14441 3.87155 3.88947 3.61816 3.63453 3.61816ZM9.75359 3.61816H9.07375C8.81882 3.61816 8.56388 3.87155 8.56388 4.12408V8.26349C8.55878 8.43748 8.56388 8.67988 8.64886 8.76941L11.0283 11.1343C11.1227 11.2281 11.2958 11.2698 11.431 11.2884L11.5676 11.3013H11.6786L11.8152 11.2884C11.9504 11.2698 12.1235 11.2281 12.218 11.1343L14.5974 8.76941C14.6824 8.6858 14.8523 8.51687 14.8523 8.34711V4.20939C14.8523 3.95601 14.5974 3.70178 14.3425 3.70178H13.6635C13.4077 3.70178 13.1528 3.95601 13.1528 4.20939V8.01011L11.7081 9.4451L10.2635 8.01011V4.12408C10.2635 3.87155 10.0085 3.61816 9.75359 3.61816ZM22.6701 2.43457H17.8263C17.4873 2.43457 17.1465 2.6888 17.1465 3.1111V10.5436C17.1465 10.8806 17.4014 11.2193 17.8263 11.2193H22.6701C23.0109 11.2193 23.35 10.9659 23.35 10.5436V3.1111C23.35 2.77326 23.095 2.43457 22.6701 2.43457ZM21.2253 4.04102C21.4519 4.04102 21.6792 4.24122 21.7269 4.46307L21.736 4.54693V9.10865C21.736 9.33388 21.5339 9.55844 21.3099 9.60556L21.2253 9.61457H19.2708C19.0441 9.61457 18.8182 9.41503 18.7708 9.19273L18.7617 9.10865V4.54693C18.7617 4.32246 18.9625 4.09732 19.1862 4.05006L19.2708 4.04102H21.2253Z" fill="#C0C0C0"/>
</svg>
