<svg width="64" height="64" viewBox="0 0 64 64" xmlns="http://www.w3.org/2000/svg"><path d="M61.3333 32C61.3333 48.2004 48.2004 61.3333 32 61.3333C15.7996 61.3333 2.66667 48.2004 2.66667 32C2.66667 15.7996 15.7996 2.66667 32 2.66667C48.2004 2.66667 61.3333 15.7996 61.3333 32Z" fill="#2ac864" stroke="#fff" stroke-width="5.33333"/><path fill-rule="evenodd" clip-rule="evenodd" d="M30.7598 49.703C30.3462 49.703 29.9253 49.6587 29.5117 49.5664L24.571 48.4733C22.7321 48.0672 21.5689 46.2467 21.9751 44.4078C22.3813 42.5689 24.2017 41.4057 26.0406 41.8119L29.6705 42.6132V15.9453C29.6705 14.0621 31.1992 12.5334 33.0824 12.5334C34.9656 12.5334 36.4944 14.0621 36.4944 15.9453V43.9573C36.4944 45.7076 35.7115 47.3397 34.349 48.4327C33.3151 49.2636 32.0522 49.703 30.7598 49.703ZM15.2028 40.8071C14.516 40.8071 13.8218 40.6004 13.2199 40.1683C11.6875 39.0716 11.3367 36.941 12.4334 35.4086C15.7382 30.7965 17.6215 24.2828 18.12 22.3959C18.6 20.5754 20.4685 19.4898 22.2889 19.9699C24.1094 20.4499 25.195 22.3183 24.7149 24.1388C23.9801 26.923 21.8495 33.9758 17.976 39.3818C17.3113 40.3123 16.2663 40.8071 15.2028 40.8071ZM46.0175 38.012C46.4052 39.5592 47.7973 40.5931 49.3224 40.5931C49.5956 40.5931 49.8762 40.5599 50.1606 40.4897C51.9884 40.0319 53.0962 38.1782 52.6383 36.3503C50.5003 27.8537 46.6932 21.5541 46.5307 21.292C45.5485 19.6857 43.4511 19.1798 41.8448 20.1583C40.2386 21.1369 39.7253 23.2343 40.7038 24.8442L40.7042 24.8448C40.7565 24.9319 44.1507 30.5853 46.0175 38.012Z" fill="#fff"/></svg>